<?xml version="1.0" encoding="UTF-8"?>
<svg xmlns="http://www.w3.org/2000/svg" xmlns:xlink="http://www.w3.org/1999/xlink" viewBox="0 0 96 96" width="96px" height="96px">
<g id="surface9876249">
<path style=" stroke:none;fill-rule:nonzero;fill:rgb(30.980393%,14.117648%,28.627452%);fill-opacity:1;" d="M 48 8 C 25.957031 8 8 25.957031 8 48 C 8 70.042969 25.957031 88 48 88 C 70.042969 88 88 70.042969 88 48 C 88 25.957031 70.042969 8 48 8 Z M 48 16 C 65.71875 16 80 30.28125 80 48 C 80 64.058594 68.261719 77.253906 52.875 79.59375 L 52.875 57.539062 L 62.1875 57.539062 L 63.648438 48.078125 L 52.875 48.078125 L 52.875 42.90625 C 52.875 38.972656 54.15625 35.484375 57.835938 35.484375 L 63.742188 35.484375 L 63.742188 27.226562 C 62.703125 27.085938 60.507812 26.78125 56.359375 26.78125 C 47.695312 26.78125 42.617188 31.355469 42.617188 41.78125 L 42.617188 48.078125 L 33.710938 48.078125 L 33.710938 57.539062 L 42.617188 57.539062 L 42.617188 79.515625 C 27.480469 76.964844 16 63.882812 16 48 C 16 30.28125 30.28125 16 48 16 Z M 48 16 "/>
</g>
</svg>
