<?xml version="1.0" encoding="UTF-8"?>
<svg xmlns="http://www.w3.org/2000/svg" xmlns:xlink="http://www.w3.org/1999/xlink" viewBox="0 0 96 96" width="96px" height="96px">
<g id="surface9863369">
<path style=" stroke:none;fill-rule:nonzero;fill:rgb(30.980393%,14.117648%,28.627452%);fill-opacity:1;" d="M 32 12 C 20.972656 12 12 20.972656 12 32 L 12 64 C 12 75.027344 20.972656 84 32 84 L 64 84 C 75.027344 84 84 75.027344 84 64 L 84 32 C 84 20.972656 75.027344 12 64 12 Z M 32 20 L 64 20 C 70.617188 20 76 25.382812 76 32 L 76 64 C 76 70.617188 70.617188 76 64 76 L 32 76 C 25.382812 76 20 70.617188 20 64 L 20 32 C 20 25.382812 25.382812 20 32 20 Z M 68 24 C 65.789062 24 64 25.789062 64 28 C 64 30.210938 65.789062 32 68 32 C 70.210938 32 72 30.210938 72 28 C 72 25.789062 70.210938 24 68 24 Z M 48 28 C 36.972656 28 28 36.972656 28 48 C 28 59.027344 36.972656 68 48 68 C 59.027344 68 68 59.027344 68 48 C 68 36.972656 59.027344 28 48 28 Z M 48 36 C 54.617188 36 60 41.382812 60 48 C 60 54.617188 54.617188 60 48 60 C 41.382812 60 36 54.617188 36 48 C 36 41.382812 41.382812 36 48 36 Z M 48 36 "/>
</g>
</svg>
