<?xml version="1.0" encoding="UTF-8"?>
<svg xmlns="http://www.w3.org/2000/svg" xmlns:xlink="http://www.w3.org/1999/xlink" viewBox="0 0 96 96" width="96px" height="96px">
<g id="surface9883750">
<path style=" stroke:none;fill-rule:nonzero;fill:rgb(30.980393%,14.117648%,28.627452%);fill-opacity:1;" d="M 58 24 C 50.40625 24 44 27.625 40 33.625 L 40 68 L 82 68 C 89.59375 68 96 61.59375 96 54 C 96 46.40625 89.59375 40 82 40 C 81.203125 40 80.046875 39.96875 79.25 40.375 C 76.84375 30.78125 68 24 58 24 Z M 32 32 L 32 68 L 36 68 L 36 32.375 C 34.796875 31.96875 33.203125 32 32 32 Z M 28 32.375 C 26.40625 32.78125 25.203125 33.59375 24 34 L 24 68 L 28 68 Z M 20 37.625 C 18 39.625 16.78125 41.953125 16.375 44.75 L 16 44.75 L 16 68 L 20 68 Z M 12 44 C 10.40625 44 9.203125 44.34375 8 44.75 L 8 67.25 C 9.203125 67.65625 10.40625 68 12 68 Z M 4 47.25 C 1.59375 49.25 0 52.40625 0 56 C 0 59.59375 1.59375 62.75 4 64.75 Z M 4 47.25 "/>
</g>
</svg>
