<?xml version="1.0" encoding="UTF-8"?>
<svg xmlns="http://www.w3.org/2000/svg" xmlns:xlink="http://www.w3.org/1999/xlink" viewBox="0 0 96 96" width="96px" height="96px">
<g id="surface9946044">
<path style=" stroke:none;fill-rule:nonzero;fill:rgb(30.980393%,14.117648%,28.627452%);fill-opacity:1;" d="M 48 8 C 26 8 8 26 8 48 C 8 70 26 88 48 88 C 70 88 88 70 88 48 C 88 26 70 8 48 8 Z M 64.226562 65.625 C 63.476562 65.625 63.101562 65.246094 62.347656 64.871094 C 56.703125 61.484375 49.554688 59.605469 42.03125 59.605469 C 37.890625 59.605469 33.378906 60.355469 29.617188 61.109375 C 28.863281 61.109375 28.113281 61.484375 27.734375 61.484375 C 26.230469 61.484375 25.105469 60.355469 25.105469 58.851562 C 25.105469 57.347656 25.855469 56.21875 27.359375 56.21875 C 32.253906 55.09375 37.144531 54.339844 42.410156 54.339844 C 51.0625 54.339844 58.96875 56.597656 65.738281 60.359375 C 66.492188 61.113281 67.242188 61.488281 67.242188 62.992188 C 66.484375 64.871094 65.355469 65.625 64.226562 65.625 Z M 68.363281 55.09375 C 67.613281 55.09375 66.859375 54.714844 66.109375 54.339844 C 59.710938 50.199219 50.679688 47.945312 40.898438 47.945312 C 36.007812 47.945312 31.492188 48.695312 28.109375 49.449219 C 27.355469 49.824219 26.980469 49.824219 26.226562 49.824219 C 24.347656 49.824219 23.214844 48.320312 23.214844 46.8125 C 23.214844 44.933594 23.96875 44.179688 25.847656 43.425781 C 30.363281 42.296875 34.878906 41.167969 41.277344 41.167969 C 51.8125 41.167969 61.59375 43.800781 69.871094 48.691406 C 71 49.445312 71.753906 50.570312 71.753906 51.703125 C 71.375 53.585938 70.246094 55.09375 68.363281 55.09375 Z M 73.257812 43.046875 C 72.503906 43.046875 72.128906 42.671875 71 42.296875 C 63.476562 38.15625 52.5625 35.523438 42.027344 35.523438 C 36.761719 35.523438 31.117188 36.277344 26.222656 37.402344 C 25.472656 37.402344 25.097656 37.78125 23.96875 37.78125 C 21.710938 38.160156 20.203125 36.277344 20.203125 34.019531 C 20.203125 31.765625 21.332031 30.632812 22.835938 30.257812 C 28.859375 28.753906 35.257812 28 42.027344 28 C 53.691406 28 65.730469 30.632812 75.140625 35.523438 C 76.269531 36.277344 77.394531 37.402344 77.394531 39.289062 C 77.019531 41.542969 75.511719 43.046875 73.257812 43.046875 Z M 73.257812 43.046875 "/>
</g>
</svg>
