<?xml version="1.0" encoding="UTF-8"?>
<svg xmlns="http://www.w3.org/2000/svg" xmlns:xlink="http://www.w3.org/1999/xlink" viewBox="0 0 48 48" width="48px" height="48px">
<g id="surface10013933">
<path style=" stroke:none;fill-rule:nonzero;fill:rgb(30.980393%,14.117648%,28.627452%);fill-opacity:1;" d="M 24 8 C 24 8 11.492188 8 8.371094 8.835938 C 6.648438 9.296875 5.296875 10.652344 4.835938 12.371094 C 4 15.492188 4 24 4 24 C 4 24 4 32.507812 4.835938 35.628906 C 5.296875 37.351562 6.652344 38.703125 8.371094 39.164062 C 11.492188 40 24 40 24 40 C 24 40 36.507812 40 39.628906 39.164062 C 41.347656 38.703125 42.703125 37.347656 43.164062 35.628906 C 44 32.507812 44 24 44 24 C 44 24 44 15.492188 43.164062 12.371094 C 42.703125 10.652344 41.347656 9.296875 39.628906 8.835938 C 36.507812 8 24 8 24 8 Z M 24 12 C 29.765625 12 36.980469 12.265625 38.59375 12.699219 C 38.933594 12.789062 39.207031 13.066406 39.300781 13.40625 C 39.78125 15.203125 40 20.683594 40 24 C 40 27.316406 39.78125 32.796875 39.300781 34.59375 C 39.210938 34.933594 38.933594 35.207031 38.59375 35.300781 C 36.984375 35.734375 29.765625 36 24 36 C 18.238281 36 11.019531 35.734375 9.40625 35.300781 C 9.066406 35.210938 8.792969 34.933594 8.699219 34.59375 C 8.21875 32.796875 8 27.316406 8 24 C 8 20.683594 8.21875 15.203125 8.699219 13.402344 C 8.789062 13.066406 9.066406 12.789062 9.40625 12.699219 C 11.015625 12.265625 18.234375 12 24 12 Z M 20 17.070312 L 20 30.929688 L 32 24 Z M 20 17.070312 "/>
</g>
</svg>
