<?xml version="1.0" encoding="UTF-8"?>
<svg xmlns="http://www.w3.org/2000/svg" xmlns:xlink="http://www.w3.org/1999/xlink" viewBox="0 0 96 96" width="96px" height="96px">
<g id="surface10637433">
<path style=" stroke:none;fill-rule:nonzero;fill:rgb(85.09804%,27.450982%,93.725491%);fill-opacity:1;" d="M 48 16 C 48 16 22.980469 16 16.742188 17.671875 C 13.296875 18.59375 10.59375 21.300781 9.671875 24.742188 C 8 30.980469 8 48 8 48 C 8 48 8 65.019531 9.671875 71.257812 C 10.59375 74.703125 13.300781 77.40625 16.742188 78.328125 C 22.980469 80 48 80 48 80 C 48 80 73.019531 80 79.257812 78.328125 C 82.699219 77.40625 85.40625 74.699219 86.328125 71.257812 C 88 65.019531 88 48 88 48 C 88 48 88 30.980469 86.328125 24.742188 C 85.40625 21.300781 82.699219 18.59375 79.257812 17.671875 C 73.019531 16 48 16 48 16 Z M 48 24 C 59.527344 24 73.964844 24.535156 77.1875 25.398438 C 77.863281 25.578125 78.417969 26.132812 78.601562 26.8125 C 79.566406 30.40625 80 41.367188 80 48 C 80 54.632812 79.566406 65.589844 78.601562 69.1875 C 78.421875 69.863281 77.867188 70.417969 77.1875 70.601562 C 73.96875 71.464844 59.527344 72 48 72 C 36.476562 72 22.039062 71.464844 18.8125 70.601562 C 18.136719 70.421875 17.582031 69.867188 17.398438 69.1875 C 16.433594 65.59375 16 54.632812 16 48 C 16 41.367188 16.433594 30.40625 17.398438 26.804688 C 17.578125 26.132812 18.132812 25.578125 18.8125 25.398438 C 22.03125 24.535156 36.472656 24 48 24 Z M 40 34.140625 L 40 61.859375 L 64 48 Z M 40 34.140625 "/>
</g>
</svg>
